<svg width="32" height="32" viewBox="0 0 32 32" fill="none" xmlns="http://www.w3.org/2000/svg">
<path d="M25.2004 11.2H6.80039C6.57948 11.2 6.40039 11.379 6.40039 11.6V26.8C6.40039 27.0209 6.57948 27.2 6.80039 27.2H25.2004C25.4213 27.2 25.6004 27.0209 25.6004 26.8V11.6C25.6004 11.379 25.4213 11.2 25.2004 11.2Z" stroke="#C9AA7C" stroke-opacity="0.7" stroke-width="0.8"/>
<path d="M11.2002 11.1999V7.9999C14.4002 5.86657 17.6002 5.86657 20.8002 7.9999V11.1999" stroke="#C9AA7C" stroke-opacity="0.7" stroke-width="0.8"/>
<path d="M6.40039 17.6001H25.6004" stroke="#C9AA7C" stroke-opacity="0.7" stroke-width="0.8"/>
<path d="M16 17.6001V27.2001" stroke="#C9AA7C" stroke-opacity="0.7" stroke-width="0.8" stroke-dasharray="1.6 1.6"/>
<path d="M15.9998 16.4C16.6625 16.4 17.1998 15.8627 17.1998 15.2C17.1998 14.5373 16.6625 14 15.9998 14C15.3371 14 14.7998 14.5373 14.7998 15.2C14.7998 15.8627 15.3371 16.4 15.9998 16.4Z" fill="#C9AA7C" fill-opacity="0.7"/>
</svg>
